<svg id="Layer_1" data-name="Layer 1" xmlns="http://www.w3.org/2000/svg" viewBox="0 0 1831.8 622.4"><defs><style>.cls-1{fill:#6c3c97;}.cls-2{font-size:195px;fill:#03ff09;font-family:ComicSansMS-Bold, Comic Sans MS;font-weight:700;}</style></defs><path class="cls-1" d="M610.7,351.4c0-42.4-34.1-76.6-75.9-76.6H497.2V427.3h37.6a76.1,76.1,0,0,0,75.9-75.9M781.9,655.5H643.7L534.1,503.3H497.2V655.1H375.5V198.9H549.8c100.6,0,182.6,68.4,182.6,152.5,0,51.3-31.4,97.1-79.3,125.2L781.9,655.5" transform="translate(-375.5 -40.3)"/><path class="cls-1" d="M919.1,378.8c-32.1,0-59.5,43.7-59.5,97.8s27.4,97.8,59.5,97.8,60.2-43.7,60.2-97.8-27.3-97.8-60.2-97.8m187.4,97.8c0,103.3-84,186.1-187.4,186.1S732.4,579.9,732.4,476.6s83.4-186.1,186.7-186.1,187.4,82.8,187.4,186.1m285.7-178.5L1251.9,438.3V297.6H1130.2V655.1h121.7v-145l146.4,145h153.2l-186-186L1519.6,315V527.2c0,70.4,42.3,135.5,149,135.5,50.7,0,97.1-28.8,119.7-54.8l54.7,47.2h26v-357H1747.3V529.3c-13.7,23.9-32.8,38.9-62.3,38.9s-43.7-17.7-43.7-74.5V298.1Z" transform="translate(-375.5 -40.3)"/><text class="cls-2" transform="translate(1302.6 158.8) rotate(20.6)">KIDS</text></svg>