<?xml version="1.0" encoding="utf-8"?>
<!-- Generator: Adobe Illustrator 24.1.0, SVG Export Plug-In . SVG Version: 6.00 Build 0)  -->
<svg version="1.1" id="Layer_1" xmlns="http://www.w3.org/2000/svg" xmlns:xlink="http://www.w3.org/1999/xlink" x="0px" y="0px"
	 viewBox="0 0 928.7 308.9" style="enable-background:new 0 0 928.7 308.9;" xml:space="preserve">
<style type="text/css">
	.st0{fill:#6C3C97;}
</style>
<path class="st0" d="M137,127.6c0.1-24.5-19.7-44.5-44.2-44.6c0,0,0,0,0,0H70.9v88.9h21.9C117.2,171.8,136.9,152,137,127.6
	 M236.7,304.7h-80.4l-63.9-88.6H70.9v88.4H0V38.8h101.6c58.5,0,106.3,39.9,106.3,88.8c0,29.9-18.3,56.6-46.2,72.9L236.7,304.7"/>
<path class="st0" d="M316.7,143.6c-18.8,0-34.7,25.4-34.7,56.9s15.9,57,34.7,57s35-25.5,35-57S335.8,143.6,316.7,143.6 M425.8,200.5
	c0,60.2-48.9,108.4-109.1,108.4c-59.8,1.8-109.8-45.2-111.6-105.1C203.2,144,250.3,94,310.1,92.2c2.2-0.1,4.4-0.1,6.6,0
	C376.9,92.2,425.8,140.4,425.8,200.5 M592.2,96.6l-81.7,81.6V96.3h-70.9v208.2h70.9v-84.4l85.3,84.4H685L576.6,196.2l89.8-89.7V230
	c0,41.1,24.7,78.9,86.8,78.9c29.5,0,56.5-16.7,69.7-31.8l31.9,27.4h15.1V96.6H799v134.6c-8,14-19.1,22.7-36.3,22.7
	s-25.4-10.3-25.4-43.4V96.6H592.2z"/>
<g>
	
		<image style="overflow:visible;enable-background:new    ;" width="241" height="144" xlink:href="C3BFB36CE67338AD.png"  transform="matrix(0.9247 0 0 0.9247 657.1458 8.8423)">
	</image>
</g>
</svg>
